<?xml version="1.0" encoding="UTF-8"?>
<svg version="1.1" xmlns="http://www.w3.org/2000/svg" width="32" height="32">
<path d="M0 0 C10.56 0 21.12 0 32 0 C32 10.56 32 21.12 32 32 C21.44 32 10.88 32 0 32 C0 21.44 0 10.88 0 0 Z " fill="#2E3336" transform="translate(0,0)"/>
<path d="M0 0 C1.32 0 2.64 0 4 0 C4.33 0.99 4.66 1.98 5 3 C5.66 2.34 6.32 1.68 7 1 C9.625 0.375 9.625 0.375 12 0 C12 4.33333333 12 8.66666667 12 13 C12.66 13 13.32 13 14 13 C14 13.99 14 14.98 14 16 C13.34 16 12.68 16 12 16 C12 16.66 12 17.32 12 18 C9.69 18 7.38 18 5 18 C5.99 17.67 6.98 17.34 8 17 C4.61981469 15.95994298 1.5219721 15.91995518 -2 16 C-2 15.34 -2 14.68 -2 14 C-0.68 13.67 0.64 13.34 2 13 C1.67 12.67 1.34 12.34 1 12 C0.76572222 9.98405418 0.58663876 7.961526 0.4375 5.9375 C0.35371094 4.83277344 0.26992187 3.72804688 0.18359375 2.58984375 C0.09271484 1.30787109 0.09271484 1.30787109 0 0 Z " fill="#575445" transform="translate(10,7)"/>
<path d="M0 0 C0.91007812 0.10183594 1.82015625 0.20367188 2.7578125 0.30859375 C3.45648438 0.39238281 4.15515625 0.47617187 4.875 0.5625 C4.875 1.5525 4.875 2.5425 4.875 3.5625 C4.215 3.5625 3.555 3.5625 2.875 3.5625 C2.875 4.2225 2.875 4.8825 2.875 5.5625 C0.565 5.5625 -1.745 5.5625 -4.125 5.5625 C-3.135 5.2325 -2.145 4.9025 -1.125 4.5625 C-4.50518531 3.52244298 -7.6030279 3.48245518 -11.125 3.5625 C-11.125 2.9025 -11.125 2.2425 -11.125 1.5625 C-10.50625 1.418125 -9.8875 1.27375 -9.25 1.125 C-3.48214286 -0.40178571 -3.48214286 -0.40178571 0 0 Z " fill="#4A493C" transform="translate(19.125,19.4375)"/>
<path d="M0 0 C0.99 0.33 1.98 0.66 3 1 C3 4.63 3 8.26 3 12 C1.35 12 -0.3 12 -2 12 C-2 11.01 -2 10.02 -2 9 C-2.99 9.33 -3.98 9.66 -5 10 C-5 9.34 -5 8.68 -5 8 C-3.35 8 -1.7 8 0 8 C-0.66 7.34 -1.32 6.68 -2 6 C-1.34 4.02 -0.68 2.04 0 0 Z " fill="#5D5C4C" transform="translate(19,7)"/>
<path d="M0 0 C2.3125 -0.25 2.3125 -0.25 5 0 C6.8125 2 6.8125 2 8 4 C6.35 4 4.7 4 3 4 C3 3.01 3 2.02 3 1 C2.01 1.33 1.02 1.66 0 2 C0 1.34 0 0.68 0 0 Z " fill="#6C654C" transform="translate(14,15)"/>
</svg>
